<?xml version="1.0" encoding="iso-8859-1"?>
<!-- Generator: Adobe Illustrator 19.0.0, SVG Export Plug-In . SVG Version: 6.00 Build 0)  -->
<svg version="1.1" id="Capa_1" xmlns="http://www.w3.org/2000/svg" xmlns:xlink="http://www.w3.org/1999/xlink" x="0px" y="0px"
	 viewBox="0 0 512 512" style="enable-background:new 0 0 512 512;" xml:space="preserve">
<g>
	<g>
		<g>
			<path d="M106.667,256c0,82.344,67,149.333,149.333,149.333S405.333,338.344,405.333,256s-67-149.333-149.333-149.333
				S106.667,173.656,106.667,256z M256,128c70.583,0,128,57.417,128,128s-57.417,128-128,128s-128-57.417-128-128
				S185.417,128,256,128z"/>
			<path d="M469.333,74.667v-64C469.333,4.771,464.563,0,458.667,0H53.333c-5.896,0-10.667,4.771-10.667,10.667v64
				c0,5.896,4.771,10.667,10.667,10.667h74.875C74.667,125.167,42.667,187.688,42.667,256s32,130.833,85.542,170.667H53.333
				c-5.896,0-10.667,4.771-10.667,10.667v64c0,5.896,4.771,10.667,10.667,10.667h405.333c5.896,0,10.667-4.771,10.667-10.667v-64
				c0-5.896-4.771-10.667-10.667-10.667h-74.875c53.542-39.833,85.542-102.354,85.542-170.667s-32-130.833-85.542-170.667h74.875
				C464.563,85.333,469.333,80.563,469.333,74.667z M448,64H346.104c-4.958,0-9.25,3.406-10.375,8.229
				c-1.146,4.813,1.188,9.781,5.625,11.99C407.125,116.969,448,182.792,448,256s-40.875,139.031-106.646,171.781
				c-4.438,2.208-6.771,7.177-5.625,11.99c1.125,4.823,5.417,8.229,10.375,8.229H448v42.667H64V448h101.896
				c4.958,0,9.25-3.406,10.375-8.229c1.146-4.813-1.188-9.781-5.625-11.99C104.875,395.031,64,329.208,64,256
				s40.875-139.031,106.646-171.781c4.438-2.208,6.771-7.177,5.625-11.99C175.146,67.406,170.854,64,165.896,64H64V21.333h384V64z"
				/>
		</g>
	</g>
</g>
<g>
</g>
<g>
</g>
<g>
</g>
<g>
</g>
<g>
</g>
<g>
</g>
<g>
</g>
<g>
</g>
<g>
</g>
<g>
</g>
<g>
</g>
<g>
</g>
<g>
</g>
<g>
</g>
<g>
</g>
</svg>
